<svg width="19" height="19" viewBox="0 0 19 19" fill="none" xmlns="http://www.w3.org/2000/svg">
<path fill-rule="evenodd" clip-rule="evenodd" d="M18.21 1.50004L16.13 3.58004L16.85 8.44004C16.96 9.22004 16.7 10.01 16.15 10.57L8.56004 18.15C8.27004 18.44 7.88004 18.59 7.50004 18.59C7.12004 18.59 6.73004 18.44 6.44004 18.15L0.850039 12.56C0.270039 11.98 0.270039 11.02 0.850039 10.44L8.43004 2.85004C8.99004 2.30004 9.78004 2.03004 10.56 2.15004L15.42 2.87004L17.5 0.790039L18.21 1.50004ZM7.85004 17.44L15.44 9.86004C15.77 9.53004 15.93 9.05004 15.86 8.58004L15.25 4.46004L12.5 7.21004L11.79 6.50004L14.53 3.75004L10.41 3.14004C10.34 3.13004 10.26 3.12004 10.19 3.12004C9.80004 3.12004 9.41004 3.27004 9.13004 3.55004L1.55004 11.14C1.35004 11.34 1.35004 11.66 1.55004 11.85L7.14004 17.44C7.34004 17.64 7.65004 17.64 7.85004 17.44ZM6.87998 10.8868L6.95033 10.8157L6.16203 10.0355L6.09169 10.1065C5.48305 10.7215 5.38015 11.6458 5.77315 12.3669L5.07195 13.0754L5.86024 13.8556L6.56144 13.1471C7.28657 13.5327 8.20979 13.4203 8.81843 12.8054C9.56077 12.0554 9.5545 10.8349 8.80448 10.0926C8.48835 9.77969 8.4857 9.26445 8.7986 8.94832C9.1115 8.63219 9.62674 8.62954 9.94287 8.94244C10.259 9.25533 10.2616 9.77057 9.94875 10.0867L9.8784 10.1578L10.6667 10.938L10.737 10.8669C11.3457 10.252 11.4486 9.32768 11.0556 8.60656L11.7568 7.89811L10.9685 7.11788L10.2673 7.82633C9.54216 7.44076 8.61894 7.55316 8.0103 8.16809C7.26796 8.9181 7.27423 10.1385 8.02425 10.8809C8.34038 11.1938 8.34303 11.709 8.03013 12.0251C7.71724 12.3413 7.20199 12.3439 6.88587 12.031C6.56974 11.7181 6.56709 11.2029 6.87998 10.8868Z" fill="white"/>
</svg>
